<?xml version="1.0" encoding="utf-8"?>
<!-- Uploaded to: SVG Repo, www.svgrepo.com, Generator: SVG Repo Mixer Tools -->
<svg fill="#000000" width="800px" height="800px" viewBox="0 0 32 32" version="1.1" xmlns="http://www.w3.org/2000/svg">
<title>login</title>
<path d="M12.219 26.156h6.094c1.156 0 2.125-0.406 2.875-1.188 0.75-0.75 1.219-1.75 1.219-2.875v-12.219c0-1.125-0.469-2.125-1.219-2.875s-1.75-1.188-2.875-1.188h-6.094v2.563h6.094c0.875 0 1.531 0.656 1.531 1.5v12.219c0 0.844-0.656 1.531-1.531 1.531h-6.094v2.531zM0 13.563v4.875c0 0.563 0.469 1.031 1.031 1.031h5.688v3.844c0 0.344 0.156 0.625 0.469 0.781 0.125 0.031 0.281 0.031 0.344 0.031 0.219 0 0.406-0.063 0.563-0.219l7.344-7.344c0.281-0.281 0.25-0.844 0-1.156l-7.344-7.313c-0.25-0.25-0.563-0.281-0.906-0.188-0.313 0.156-0.469 0.406-0.469 0.75v3.875h-5.688c-0.563 0-1.031 0.469-1.031 1.031z"></path>
</svg>